<svg width="52" height="33" viewBox="0 0 52 33" fill="none" xmlns="http://www.w3.org/2000/svg">
<path d="M48.1901 0.843719H3.7502C2.76802 0.843719 1.82606 1.17255 1.13155 1.75788C0.437045 2.34321 0.046875 3.13709 0.046875 3.96487V28.9341C0.046875 29.7619 0.437045 30.5558 1.13155 31.1411C1.82606 31.7264 2.76802 32.0553 3.7502 32.0553H48.1901C49.1723 32.0553 50.1142 31.7264 50.8087 31.1411C51.5032 30.5558 51.8934 29.7619 51.8934 28.9341V3.96487C51.8934 3.13709 51.5032 2.34321 50.8087 1.75788C50.1142 1.17255 49.1723 0.843719 48.1901 0.843719ZM44.1164 3.96487L25.9701 14.5456L7.82385 3.96487H44.1164ZM3.7502 28.9341V5.385L24.9147 17.7292C25.2247 17.9104 25.5929 18.0075 25.9701 18.0075C26.3474 18.0075 26.7156 17.9104 27.0256 17.7292L48.1901 5.385V28.9341H3.7502Z" fill="#9F9F9F"/>
</svg>
