<svg width="46" height="64" viewBox="0 0 46 64" fill="none" xmlns="http://www.w3.org/2000/svg">
<path d="M22.9704 0.8573C26.8031 0.857122 30.4866 2.73488 33.2471 6.09605C36.0076 9.45722 37.6301 14.0402 37.7739 18.882L37.7837 19.5842H40.2526C41.4983 19.5837 42.6982 20.1785 43.6116 21.2494C44.5251 22.3202 45.0846 23.7879 45.178 25.3584L45.1904 25.8265V57.0381C45.1908 58.6129 44.7203 60.1298 43.8732 61.2846C43.0262 62.4393 41.8652 63.1467 40.6229 63.2648L40.2526 63.2804H5.68825C4.44251 63.2809 3.24266 62.6861 2.32922 61.6153C1.41578 60.5444 0.856264 59.0767 0.762833 57.5063L0.750489 57.0381V25.8265C0.750094 24.2517 1.22058 22.7348 2.06763 21.5801C2.91468 20.4253 4.07569 19.7179 5.31792 19.5998L5.68825 19.5842H8.15714C8.15714 14.6175 9.71782 9.85427 12.4959 6.34229C15.2739 2.83031 19.0417 0.8573 22.9704 0.8573ZM40.2526 25.8265H5.68825V57.0381H40.2526V25.8265ZM22.9704 32.0688C24.0236 32.0693 25.0491 32.4954 25.8971 33.285C26.7452 34.0746 27.3712 35.1863 27.684 36.4577C27.9967 37.7291 27.9796 39.0936 27.6353 40.3519C27.291 41.6102 26.6375 42.6963 25.7701 43.4517L25.4393 43.717V47.6746C25.4386 48.4701 25.1977 49.2353 24.7657 49.8138C24.3337 50.3922 23.7433 50.7403 23.1151 50.7869C22.4869 50.8336 21.8684 50.5752 21.3858 50.0646C20.9033 49.554 20.5932 48.8297 20.5188 48.0398L20.5015 47.6746V43.717C19.5603 43.0299 18.8246 41.9693 18.4087 40.6998C17.9928 39.4303 17.9198 38.0228 18.2011 36.6955C18.4825 35.3682 19.1023 34.1954 19.9646 33.3589C20.827 32.5224 21.8835 32.0689 22.9704 32.0688ZM22.9704 7.09961C20.3513 7.09961 17.8394 8.41495 15.9874 10.7563C14.1354 13.0976 13.0949 16.2731 13.0949 19.5842H32.846C32.846 16.2731 31.8055 13.0976 29.9535 10.7563C28.1015 8.41495 25.5896 7.09961 22.9704 7.09961Z" fill="#9F9F9F"/>
</svg>
